<?xml version="1.0" encoding="utf-8"?>
<!-- Generator: Adobe Illustrator 19.1.0, SVG Export Plug-In . SVG Version: 6.00 Build 0)  -->
<svg version="1.1" id="Layer_1" xmlns="http://www.w3.org/2000/svg" xmlns:xlink="http://www.w3.org/1999/xlink" x="0px" y="0px"
	 viewBox="0 0 100 100" style="enable-background:new 0 0 100 100;" xml:space="preserve">
<style type="text/css">
	.st0{fill:#FFFFFF;}
</style>
<path class="st0" d="M44.418,38.385c-0.287-0.18-0.644-0.183-0.94-0.02c-0.294,0.165-0.475,0.475-0.475,0.811v22.092
	c0,0.336,0.181,0.646,0.475,0.811c0.142,0.078,0.298,0.118,0.454,0.118c0.169,0,0.337-0.045,0.486-0.138l17.993-11.046
	c0.276-0.169,0.443-0.468,0.443-0.791s-0.167-0.622-0.443-0.791L44.418,38.385z M44.861,59.609V40.836l15.289,9.386L44.861,59.609z
	 M49.918,16.494c-18.597,0-33.728,15.131-33.728,33.728s15.131,33.726,33.728,33.726s33.726-15.129,33.726-33.726
	S68.515,16.494,49.918,16.494z M49.918,82.091c-17.574,0-31.871-14.297-31.871-31.869c0-17.574,14.297-31.871,31.871-31.871
	c17.572,0,31.869,14.297,31.869,31.871C81.787,67.794,67.49,82.091,49.918,82.091z"/>
<g>
</g>
<g>
</g>
<g>
</g>
<g>
</g>
<g>
</g>
<g>
</g>
<g>
</g>
<g>
</g>
<g>
</g>
<g>
</g>
<g>
</g>
<g>
</g>
<g>
</g>
<g>
</g>
<g>
</g>
</svg>
