<?xml version="1.0" encoding="utf-8"?>
<!-- Generator: Adobe Illustrator 19.1.0, SVG Export Plug-In . SVG Version: 6.00 Build 0)  -->
<svg version="1.1" id="Layer_1" xmlns="http://www.w3.org/2000/svg" xmlns:xlink="http://www.w3.org/1999/xlink" x="0px" y="0px"
	 viewBox="0 0 100 100" style="enable-background:new 0 0 100 100;" xml:space="preserve">
<style type="text/css">
	.st0{fill:#7AE5AF;}
</style>
<g>
	<g>
		<path class="st0" d="M45.553,39.783l0.002,14.337c0,0.611,0.494,1.105,1.105,1.105c0.305,0,0.581-0.123,0.781-0.323
			c0.2-0.2,0.323-0.477,0.323-0.781l-0.002-14.337c0-0.611-0.494-1.105-1.105-1.105C46.047,38.679,45.554,39.173,45.553,39.783z"/>
		<path class="st0" d="M43.76,51.047v-7.211c0-0.611-0.494-1.105-1.105-1.105c-0.611,0-1.105,0.494-1.105,1.105l0,7.211
			c0,0.611,0.494,1.105,1.105,1.105c0.305,0,0.581-0.123,0.781-0.323C43.636,51.628,43.76,51.351,43.76,51.047z"/>
		<path class="st0" d="M31.446,23.634l-7.812,7.812c-4.846,4.846-4.846,12.731,0,17.577l27.342,27.342
			c4.846,4.846,12.731,4.846,17.577,0l7.812-7.812c4.846-4.846,4.846-12.731,0-17.577L49.023,23.634
			C44.178,18.789,36.292,18.789,31.446,23.634z M31.492,31.492c1.292-1.292,3.395-1.292,4.687,0c1.291,1.291,1.292,3.395,0,4.687
			s-3.396,1.291-4.687,0C30.199,34.886,30.2,32.784,31.492,31.492z M60.364,71.856l-1.562,1.562c-0.862,0.862-2.262,0.862-3.125,0
			c-0.862-0.862-0.862-2.262,0-3.125l1.562-1.562c0.863-0.863,2.262-0.862,3.125,0S61.227,70.993,60.364,71.856z M54.798,66.29
			l-1.562,1.562c-0.862,0.862-2.262,0.862-3.125,0c-0.862-0.862-0.862-2.262,0-3.125l1.562-1.562c0.863-0.863,2.262-0.862,3.125,0
			C55.661,64.027,55.661,65.426,54.798,66.29z M66.891,65.329l-1.562,1.562c-0.863,0.863-2.262,0.862-3.125,0
			c-0.862-0.862-0.863-2.262,0-3.125l1.562-1.562c0.862-0.862,2.262-0.862,3.125,0S67.754,64.466,66.891,65.329z M61.325,59.763
			l-1.562,1.562c-0.863,0.863-2.262,0.862-3.125,0c-0.862-0.862-0.863-2.262,0-3.125l1.562-1.562c0.862-0.862,2.262-0.862,3.125,0
			C62.188,57.5,62.188,58.9,61.325,59.763z M73.312,58.908l-1.562,1.562c-0.862,0.862-2.262,0.862-3.125,0s-0.862-2.262,0-3.125
			l1.562-1.562c0.863-0.863,2.262-0.862,3.125,0S74.175,58.045,73.312,58.908z M67.746,53.342l-1.562,1.562
			c-0.862,0.862-2.262,0.862-3.125,0c-0.862-0.862-0.862-2.262,0-3.125l1.562-1.562c0.863-0.863,2.262-0.862,3.125,0
			S68.609,52.479,67.746,53.342z M59.257,41.719c2.262,2.262,2.262,5.941,0,8.203l-9.374,9.374c-2.262,2.262-5.941,2.262-8.203,0
			l-7.812-7.812c-2.262-2.262-2.262-5.94,0-8.203l9.374-9.374c2.262-2.262,5.94-2.262,8.203,0L59.257,41.719z"/>
	</g>
</g>
<g>
</g>
<g>
</g>
<g>
</g>
<g>
</g>
<g>
</g>
<g>
</g>
<g>
</g>
<g>
</g>
<g>
</g>
<g>
</g>
<g>
</g>
<g>
</g>
<g>
</g>
<g>
</g>
<g>
</g>
</svg>
