<?xml version="1.0" encoding="utf-8"?>
<!-- Generator: Adobe Illustrator 19.1.0, SVG Export Plug-In . SVG Version: 6.00 Build 0)  -->
<svg version="1.1" id="Layer_1" xmlns="http://www.w3.org/2000/svg" xmlns:xlink="http://www.w3.org/1999/xlink" x="0px" y="0px"
	 viewBox="0 0 100 100" style="enable-background:new 0 0 100 100;" xml:space="preserve">
<style type="text/css">
	.st0{fill:#7AE5AF;}
</style>
<g>
	<path class="st0" d="M20.382,43.035c-1.385,0.534-2.373,1.78-2.56,3.254c-0.198,1.474,0.425,2.94,1.631,3.808L32.6,59.664
		l46.716-36.747L38.009,63.609l17.984,13.076c1.137,0.831,2.611,1.089,3.975,0.674c1.355-0.415,2.433-1.443,2.927-2.77
		l19.229-52.642c0.197-0.534,0.061-1.137-0.347-1.532c-0.405-0.398-0.998-0.524-1.532-0.317L20.382,43.035z M20.382,43.035"/>
	<path class="st0" d="M29.483,62.847l0.109,0.615l2.552,13.945c0.187,1.041,0.881,1.909,1.849,2.335
		c0.96,0.415,2.079,0.327,2.958-0.246c3.553-2.297,8.202-5.333,8.073-5.51L29.483,62.847z M29.483,62.847"/>
</g>
<g>
</g>
<g>
</g>
<g>
</g>
<g>
</g>
<g>
</g>
<g>
</g>
<g>
</g>
<g>
</g>
<g>
</g>
<g>
</g>
<g>
</g>
<g>
</g>
<g>
</g>
<g>
</g>
<g>
</g>
</svg>
