<?xml version="1.0" encoding="utf-8"?>
<!-- Generator: Adobe Illustrator 19.1.0, SVG Export Plug-In . SVG Version: 6.00 Build 0)  -->
<svg version="1.1" id="Layer_1" xmlns="http://www.w3.org/2000/svg" xmlns:xlink="http://www.w3.org/1999/xlink" x="0px" y="0px"
	 viewBox="0 0 100 100" style="enable-background:new 0 0 100 100;" xml:space="preserve">
<style type="text/css">
	.st0{fill:#FFFFFF;}
</style>
<g>
	<path class="st0" d="M63.866,43.368c-0.211,0.211-0.316,0.421-0.316,0.684s0.105,0.526,0.316,0.684
		c0.158,0.211,0.421,0.316,0.684,0.316s0.526-0.105,0.684-0.316c0.211-0.158,0.316-0.421,0.316-0.684s-0.105-0.526-0.316-0.684
		c-0.158-0.158-0.421-0.316-0.684-0.316C64.287,43.105,64.024,43.211,63.866,43.368z"/>
	<path class="st0" d="M63.55,52c0,0.526,0.421,1,1,1c0.526,0,1-0.421,1-1c0-0.526-0.474-1-1-1S63.55,51.421,63.55,52z"/>
	<path class="st0" d="M63.55,48.053c0,0.526,0.421,1,1,1c0.526,0,1-0.421,1-1s-0.474-1-1-1S63.55,47.474,63.55,48.053z"/>
	<path class="st0" d="M63.55,55.947c0,0.526,0.421,1,1,1c0.526,0,1-0.421,1-1c0-0.526-0.474-1-1-1S63.55,55.368,63.55,55.947z"/>
</g>
<path class="st0" d="M52.45,42.8c-0.4,0.4-0.4,1,0,1.4l4.8,4.8h-21.8c-0.6,0-1,0.4-1,1s0.4,1,1,1h21.9l-4.8,4.8
	c-0.4,0.4-0.4,1,0,1.4s1,0.4,1.4,0l7.2-7.2l-7.2-7.2C53.55,42.4,52.85,42.4,52.45,42.8z"/>
<g>
</g>
<g>
</g>
<g>
</g>
<g>
</g>
<g>
</g>
<g>
</g>
<g>
</g>
<g>
</g>
<g>
</g>
<g>
</g>
<g>
</g>
<g>
</g>
<g>
</g>
<g>
</g>
<g>
</g>
</svg>
