<?xml version="1.0" encoding="utf-8"?>
<!-- Generator: Adobe Illustrator 19.1.0, SVG Export Plug-In . SVG Version: 6.00 Build 0)  -->
<svg version="1.1" id="Layer_1" xmlns="http://www.w3.org/2000/svg" xmlns:xlink="http://www.w3.org/1999/xlink" x="0px" y="0px"
	 viewBox="0 0 100 100" style="enable-background:new 0 0 100 100;" xml:space="preserve">
<style type="text/css">
	.st0{fill:#5B6777;}
</style>
<path class="st0" d="M57.2,52.45c-0.4-0.4-1-0.4-1.4,0l-4.8,4.8v-21.8c0-0.6-0.4-1-1-1s-1,0.4-1,1v21.9l-4.8-4.8
	c-0.4-0.4-1-0.4-1.4,0s-0.4,1,0,1.4l7.2,7.2l7.2-7.2C57.6,53.55,57.6,52.85,57.2,52.45z"/>
<path class="st0" d="M56.5,65.55h-13c-0.6,0-1-0.4-1-1c0-0.6,0.4-1,1-1h13c0.6,0,1,0.4,1,1C57.5,65.05,57,65.55,56.5,65.55z"/>
<g>
</g>
<g>
</g>
<g>
</g>
<g>
</g>
<g>
</g>
<g>
</g>
<g>
</g>
<g>
</g>
<g>
</g>
<g>
</g>
<g>
</g>
<g>
</g>
<g>
</g>
<g>
</g>
<g>
</g>
</svg>
