<?xml version="1.0" encoding="utf-8"?>
<!-- Generator: Adobe Illustrator 19.1.0, SVG Export Plug-In . SVG Version: 6.00 Build 0)  -->
<svg version="1.1" id="Layer_1" xmlns="http://www.w3.org/2000/svg" xmlns:xlink="http://www.w3.org/1999/xlink" x="0px" y="0px"
	 viewBox="0 0 100 100" style="enable-background:new 0 0 100 100;" xml:space="preserve">
<style type="text/css">
	.st0{fill:#7AE5AF;}
</style>
<path class="st0" d="M75.349,68.927c-1.467-9.253-9.174-16.248-17.964-18.836c3.777-4.183,5.787-11.007,5.794-15.633
	C63.191,27.366,57.34,20,49.883,20s-13.308,7.366-13.297,14.458c0.007,4.646,2.034,11.509,5.843,15.687
	c-8.713,2.63-16.323,9.593-17.78,18.781c-0.603,3.805,3.838,6.331,6.712,7.625c5.638,2.537,12.079,3.401,18.213,3.446
	c6.209,0.045,12.701-0.758,18.462-3.186C71.057,75.539,75.987,72.953,75.349,68.927z"/>
<g>
</g>
<g>
</g>
<g>
</g>
<g>
</g>
<g>
</g>
<g>
</g>
<g>
</g>
<g>
</g>
<g>
</g>
<g>
</g>
<g>
</g>
<g>
</g>
<g>
</g>
<g>
</g>
<g>
</g>
</svg>
