<?xml version="1.0" encoding="utf-8"?>
<!-- Generator: Adobe Illustrator 19.1.0, SVG Export Plug-In . SVG Version: 6.00 Build 0)  -->
<svg version="1.1" id="Layer_1" xmlns="http://www.w3.org/2000/svg" xmlns:xlink="http://www.w3.org/1999/xlink" x="0px" y="0px"
	 viewBox="0 0 100 100" style="enable-background:new 0 0 100 100;" xml:space="preserve">
<style type="text/css">
	.st0{fill:#5B6777;}
</style>
<path class="st0" d="M63.701,30.384L50,44.084L36.3,30.382c-1.633-1.633-4.281-1.634-5.916,0c-1.633,1.633-1.633,4.283,0,5.916
	L44.085,50L30.382,63.701c-1.633,1.634-1.633,4.283,0,5.916c1.636,1.636,4.283,1.634,5.917,0.001L50,55.916l13.701,13.701
	c1.633,1.633,4.283,1.634,5.916,0.001c1.636-1.636,1.633-4.284,0-5.917L55.916,50l13.701-13.701c1.633-1.632,1.636-4.281,0-5.916
	C67.983,28.749,65.334,28.751,63.701,30.384z"/>
<g>
</g>
<g>
</g>
<g>
</g>
<g>
</g>
<g>
</g>
<g>
</g>
<g>
</g>
<g>
</g>
<g>
</g>
<g>
</g>
<g>
</g>
<g>
</g>
<g>
</g>
<g>
</g>
<g>
</g>
</svg>
