<?xml version="1.0" encoding="utf-8"?>
<!-- Generator: Adobe Illustrator 19.1.0, SVG Export Plug-In . SVG Version: 6.00 Build 0)  -->
<svg version="1.1" id="Layer_1" xmlns="http://www.w3.org/2000/svg" xmlns:xlink="http://www.w3.org/1999/xlink" x="0px" y="0px"
	 viewBox="0 0 100 100" style="enable-background:new 0 0 100 100;" xml:space="preserve">
<style type="text/css">
	.st0{fill:#5B6777;}
</style>
<path class="st0" d="M50.189,72.383c0.588-0.056,1.148-0.31,1.541-0.732l13.444-14.337c0.869-0.901,0.813-2.507-0.084-3.38
	c-0.924-0.846-2.521-0.817-3.361,0.112l-9.355,9.943V30.032c0-1.268-1.12-2.423-2.381-2.423c-1.26,0-2.381,1.155-2.381,2.423v33.957
	l-9.328-9.943c-0.868-0.93-2.465-0.958-3.361-0.112c-0.924,0.873-0.952,2.479-0.112,3.38l13.445,14.337
	C48.76,72.158,49.489,72.44,50.189,72.383L50.189,72.383z"/>
<g>
</g>
<g>
</g>
<g>
</g>
<g>
</g>
<g>
</g>
<g>
</g>
<g>
</g>
<g>
</g>
<g>
</g>
<g>
</g>
<g>
</g>
<g>
</g>
<g>
</g>
<g>
</g>
<g>
</g>
</svg>
