<?xml version="1.0" encoding="utf-8"?>
<!-- Generator: Adobe Illustrator 19.1.0, SVG Export Plug-In . SVG Version: 6.00 Build 0)  -->
<svg version="1.1" id="Layer_1" xmlns="http://www.w3.org/2000/svg" xmlns:xlink="http://www.w3.org/1999/xlink" x="0px" y="0px"
	 viewBox="0 0 100 100" style="enable-background:new 0 0 100 100;" xml:space="preserve">
<style type="text/css">
	.st0{fill:#79E0AD;}
</style>
<path class="st0" d="M17.1,65.671c0.4,0.9,0,2.1-1,2.5c-0.3,0.1-0.5,0.2-0.8,0.2c-0.7,0-1.4-0.4-1.7-1.1c-0.4-1,0-2.1,1-2.5
	C15.6,64.271,16.7,64.671,17.1,65.671z M14.9,58.771L14.9,58.771c-0.2-1-1.2-1.7-2.2-1.5s-1.7,1.2-1.5,2.2c0.2,0.9,1,1.5,1.8,1.5
	c0.1,0,0.3,0,0.4,0C14.4,60.871,15.1,59.871,14.9,58.771z M14.1,51.671L14.1,51.671C14.1,51.571,14.1,51.571,14.1,51.671
	c0-1.1-0.8-2-1.9-2s-1.9,0.8-1.9,1.9l0,0l0,0c0,1,0.9,1.9,1.9,1.9C13.2,53.571,14.1,52.671,14.1,51.671z M12.6,45.871
	c0.1,0,0.3,0,0.4,0c0.9,0,1.7-0.6,1.8-1.5c0.2-1-0.4-2-1.5-2.2c-1-0.2-2,0.4-2.2,1.5C10.9,44.671,11.6,45.671,12.6,45.871z
	 M22.9,77.371c-0.7,0.8-0.6,2,0.1,2.7c0.4,0.3,0.8,0.5,1.3,0.5s1-0.2,1.4-0.6c0.7-0.8,0.6-2-0.1-2.7
	C24.8,76.571,23.6,76.671,22.9,77.371z M24.2,26.371c0.5,0,0.9-0.2,1.3-0.5c0.8-0.7,0.8-1.9,0.1-2.7s-1.9-0.8-2.7-0.1l0,0
	c-0.8,0.7-0.8,1.9-0.1,2.7C23.2,26.171,23.7,26.371,24.2,26.371z M18.1,71.471c-0.8,0.6-1,1.8-0.4,2.6c0.4,0.5,0.9,0.8,1.5,0.8
	c0.4,0,0.8-0.1,1.1-0.4c0.8-0.6,1-1.8,0.4-2.6C20.1,71.071,18.9,70.871,18.1,71.471z M30.4,21.971c0.3,0,0.6-0.1,0.9-0.3
	c0.9-0.5,1.2-1.7,0.7-2.6c-0.5-0.9-1.7-1.2-2.6-0.7c-0.9,0.5-1.2,1.7-0.7,2.6C29.1,21.571,29.7,21.971,30.4,21.971z M59.2,18.771
	c0.2,0.1,0.4,0.1,0.6,0.1c0.8,0,1.5-0.5,1.8-1.3c0.3-1-0.2-2.1-1.2-2.4c-1-0.3-2.1,0.2-2.4,1.2C57.7,17.371,58.3,18.371,59.2,18.771
	z M80.1,37.471c0.3,0.7,1,1.1,1.7,1.1c0.3,0,0.5-0.1,0.8-0.2c1-0.4,1.4-1.5,1-2.5l0,0c-0.4-1-1.5-1.4-2.5-1
	C80.1,35.471,79.7,36.571,80.1,37.471L80.1,37.471z M82.4,44.371L82.4,44.371c0.2,0.9,1,1.5,1.8,1.5c0.1,0,0.3,0,0.4,0
	c1-0.2,1.7-1.2,1.5-2.2s-1.2-1.7-2.2-1.5C82.8,42.371,82.1,43.371,82.4,44.371z M18,31.671c0.3,0.2,0.7,0.4,1.1,0.4
	c0.6,0,1.2-0.3,1.5-0.8c0.6-0.8,0.4-2-0.4-2.6c-0.8-0.6-2-0.4-2.6,0.4C17,29.871,17.2,31.071,18,31.671z M52.2,17.271
	c0.1,0,0.1,0,0.2,0c1,0,1.8-0.7,1.9-1.7c0.1-1-0.6-2-1.7-2.1c-1-0.1-2,0.6-2.1,1.7C50.4,16.171,51.1,17.171,52.2,17.271z
	 M14.6,38.471c0.3,0.1,0.5,0.2,0.8,0.2c0.7,0,1.4-0.4,1.7-1.1c0.4-1,0-2.1-1-2.5s-2.1,0-2.5,1l0,0
	C13.2,36.971,13.6,38.071,14.6,38.471z M44.8,17.271c0.1,0,0.1,0,0.2,0c1-0.1,1.8-1,1.7-2.1c-0.1-1-1-1.8-2.1-1.7
	c-1,0.1-1.8,1-1.7,2.1C43,16.571,43.8,17.271,44.8,17.271z M79.2,71.371c-0.8-0.6-2-0.4-2.6,0.4s-0.4,2,0.4,2.6
	c0.3,0.2,0.7,0.4,1.1,0.4c0.6,0,1.2-0.3,1.5-0.8C80.2,73.171,80,71.971,79.2,71.371z M71.7,77.171c-0.8,0.7-0.8,1.9-0.1,2.7
	c0.4,0.4,0.9,0.6,1.4,0.6c0.4,0,0.9-0.2,1.3-0.5c0.8-0.7,0.8-1.9,0.1-2.7C73.7,76.571,72.5,76.471,71.7,77.171z M78,32.071
	c0.4,0,0.8-0.1,1.1-0.4c0.8-0.6,1-1.8,0.4-2.6s-1.8-1-2.6-0.4c-0.8,0.6-1,1.8-0.4,2.6C76.9,31.771,77.5,32.071,78,32.071z
	 M31.4,81.471L31.4,81.471c-0.9-0.5-2.1-0.2-2.6,0.7c-0.5,0.9-0.2,2.1,0.7,2.6c0.3,0.2,0.6,0.3,0.9,0.3c0.7,0,1.3-0.3,1.6-0.9
	C32.6,83.171,32.3,81.971,31.4,81.471z M72.9,26.371c0.5,0,1-0.2,1.4-0.6c0.7-0.8,0.6-2-0.1-2.7c-0.8-0.7-2-0.6-2.7,0.1
	c-0.7,0.8-0.6,2,0.1,2.7C72,26.271,72.5,26.371,72.9,26.371z M85,49.671c-1,0-1.9,0.8-1.9,1.9l0,0c0,1,0.9,1.9,1.9,1.9
	s1.9-0.9,1.9-1.9C86.9,50.471,86,49.671,85,49.671z M82.6,64.571c-1-0.4-2.1,0-2.5,1s0,2.1,1,2.5c0.3,0.1,0.5,0.2,0.8,0.2
	c0.7,0,1.4-0.4,1.7-1.1C84,66.171,83.6,65.071,82.6,64.571z M84.6,57.271c-1-0.2-2,0.4-2.2,1.5c-0.2,1,0.4,2,1.5,2.2
	c0.1,0,0.3,0,0.4,0c0.9,0,1.7-0.6,1.9-1.5l0,0C86.3,58.471,85.6,57.471,84.6,57.271z M65.9,81.471c-0.9,0.5-1.2,1.7-0.7,2.6
	c0.3,0.6,1,0.9,1.6,0.9c0.3,0,0.7-0.1,0.9-0.3c0.9-0.5,1.2-1.7,0.7-2.6C68,81.171,66.8,80.871,65.9,81.471z M65.8,21.671
	c0.3,0.2,0.6,0.3,0.9,0.3c0.7,0,1.3-0.3,1.6-0.9c0.5-0.9,0.2-2.1-0.7-2.6s-2.1-0.2-2.6,0.7C64.6,19.971,64.9,21.171,65.8,21.671z
	 M38,84.371c-1-0.3-2.1,0.2-2.4,1.2c-0.3,1,0.2,2.1,1.2,2.4c0.2,0.1,0.4,0.1,0.6,0.1c0.8,0,1.5-0.5,1.8-1.3
	C39.5,85.771,39,84.771,38,84.371z M45,85.871c-1-0.1-2,0.6-2.1,1.7c-0.1,1,0.6,2,1.7,2.1c0.1,0,0.1,0,0.2,0c1,0,1.8-0.7,1.9-1.7
	C46.8,86.971,46.1,85.971,45,85.871z M52.3,85.871c-1,0.1-1.8,1-1.7,2.1c0.1,1,0.9,1.7,1.9,1.7c0.1,0,0.1,0,0.2,0
	c1-0.1,1.8-1,1.7-2.1C54.2,86.571,53.3,85.771,52.3,85.871z M37.3,18.871c0.2,0,0.4,0,0.6-0.1c1-0.3,1.5-1.4,1.2-2.4
	s-1.4-1.5-2.4-1.2s-1.5,1.4-1.2,2.4C35.8,18.371,36.5,18.871,37.3,18.871z M59.3,84.371c-1,0.3-1.5,1.4-1.2,2.4
	c0.3,0.8,1,1.3,1.8,1.3c0.2,0,0.4,0,0.6-0.1c1-0.3,1.5-1.4,1.2-2.4C61.4,84.571,60.3,84.071,59.3,84.371z M45.2,65.971l13-13
	c0.7-0.7,0.7-1.9,0-2.7l-13-13c-0.7-0.7-1.9-0.7-2.7,0c-0.7,0.7-0.7,1.9,0,2.7l11.7,11.7l-11.7,11.7c-0.7,0.7-0.7,1.9,0,2.7
	c0.4,0.4,0.9,0.6,1.3,0.6S44.8,66.271,45.2,65.971z"/>
<g>
</g>
<g>
</g>
<g>
</g>
<g>
</g>
<g>
</g>
<g>
</g>
<g>
</g>
<g>
</g>
<g>
</g>
<g>
</g>
<g>
</g>
<g>
</g>
<g>
</g>
<g>
</g>
<g>
</g>
</svg>
